<svg width="138" height="36" viewBox="0 0 138 36" fill="none" xmlns="http://www.w3.org/2000/svg">
<g clip-path="url(#clip0_153_1315)">
<mask id="mask0_153_1315" style="mask-type:luminance" maskUnits="userSpaceOnUse" x="0" y="0" width="138" height="36">
<path d="M138 0.449219H0V35.5496H138V0.449219Z" fill="white"/>
</mask>
<g mask="url(#mask0_153_1315)">
<path d="M52.7504 1.27344L40.8447 32.3797H47.2429L49.7137 25.883H62.3544L64.8134 32.3797H71.1631L59.3015 1.27344H52.7504ZM51.8817 20.1741L56.0473 9.22822L60.1893 20.1741H51.8817Z" fill="#666666"/>
<path d="M126.676 10.1348C124.437 10.1348 122.249 10.7985 120.388 12.0422C118.527 13.2858 117.077 15.0534 116.22 17.1214C115.363 19.1895 115.14 21.4651 115.576 23.6605C116.012 25.856 117.09 27.8727 118.674 29.4554C120.256 31.0383 122.272 32.1162 124.468 32.5529C126.664 32.9896 128.94 32.7655 131.008 31.9088C133.075 31.0522 134.843 29.6016 136.086 27.7404C137.33 25.8792 137.994 23.691 137.994 21.4526C137.994 18.4509 136.801 15.5722 134.679 13.4497C132.557 11.3272 129.678 10.1348 126.676 10.1348ZM126.676 26.9674C125.586 26.9674 124.52 26.6441 123.613 26.0383C122.706 25.4324 122 24.5714 121.582 23.5639C121.165 22.5565 121.056 21.4479 121.269 20.3784C121.482 19.309 122.006 18.3266 122.778 17.5555C123.549 16.7844 124.531 16.2593 125.6 16.0466C126.67 15.8339 127.778 15.9431 128.786 16.3604C129.793 16.7776 130.655 17.4843 131.261 18.3909C131.866 19.2976 132.189 20.3636 132.189 21.4541C132.191 22.1784 132.049 22.8959 131.772 23.5653C131.495 24.2347 131.09 24.8429 130.577 25.3551C130.066 25.8674 129.457 26.2735 128.787 26.5501C128.118 26.8268 127.401 26.9685 126.676 26.9674Z" fill="#666666"/>
<path d="M78.7872 24.3586L73.6192 10.5273H67.5165L75.8343 32.3809H81.8886L90.058 10.5273H83.9552L78.7872 24.3586Z" fill="#666666"/>
<path d="M109.253 4.71875H103.446V10.5261H100.05V15.7441H103.446V25.0467C103.446 30.3131 106.35 32.5766 110.434 32.5766C111.82 32.5967 113.194 32.3284 114.471 31.7888V26.3754C113.776 26.6315 113.044 26.7672 112.304 26.7767C110.54 26.7767 109.253 26.0873 109.253 23.7252V15.7441H114.471V10.5261H109.253V4.71875Z" fill="#666666"/>
<path d="M94.832 8.95261C97.1699 8.95261 99.0653 7.05738 99.0653 4.71947C99.0653 2.38157 97.1699 0.486328 94.832 0.486328C92.4942 0.486328 90.5988 2.38157 90.5988 4.71947C90.5988 7.05738 92.4942 8.95261 94.832 8.95261Z" fill="#666666"/>
<path d="M97.7362 10.5273H91.9291V32.3809H97.7362V10.5273Z" fill="#666666"/>
<path d="M11.3582 35.4813C17.6104 35.4813 22.6789 30.4128 22.6789 24.1606C22.6789 17.9082 17.6104 12.8398 11.3582 12.8398C5.10599 12.8398 0.0375366 17.9082 0.0375366 24.1606C0.0375366 30.4128 5.10599 35.4813 11.3582 35.4813Z" fill="#666666"/>
<path d="M30.9968 34.0524C34.7748 34.0524 37.8374 30.9897 37.8374 27.2117C37.8374 23.4337 34.7748 20.3711 30.9968 20.3711C27.2188 20.3711 24.1561 23.4337 24.1561 27.2117C24.1561 30.9897 27.2188 34.0524 30.9968 34.0524Z" fill="#666666"/>
<path d="M13.5233 11.3647C15.8612 11.3647 17.7565 9.46948 17.7565 7.13158C17.7565 4.79368 15.8612 2.89844 13.5233 2.89844C11.1854 2.89844 9.29016 4.79368 9.29016 7.13158C9.29016 9.46948 11.1854 11.3647 13.5233 11.3647Z" fill="#666666"/>
<path d="M28.3392 18.8947C33.4225 18.8947 37.5434 14.7738 37.5434 9.69051C37.5434 4.60717 33.4225 0.486328 28.3392 0.486328C23.2559 0.486328 19.1351 4.60717 19.1351 9.69051C19.1351 14.7738 23.2559 18.8947 28.3392 18.8947Z" fill="#666666"/>
</g>
</g>
<defs>
<clipPath id="clip0_153_1315">
<rect width="138" height="35.1004" fill="white" transform="translate(0 0.449219)"/>
</clipPath>
</defs>
</svg>
