<svg width="35" height="36" viewBox="0 0 35 36" fill="none" xmlns="http://www.w3.org/2000/svg">
<path d="M23.3334 1.95898H11.6667C9.24585 1.95898 7.29169 3.91315 7.29169 6.33398V29.6673C7.29169 32.0882 9.24585 34.0423 11.6667 34.0423H23.3334C25.7542 34.0423 27.7084 32.0882 27.7084 29.6673V6.33398C27.7084 3.91315 25.7542 1.95898 23.3334 1.95898ZM19.6875 31.1257H15.3125C14.9042 31.1257 14.5834 30.8048 14.5834 30.3965C14.5834 29.9882 14.9042 29.6673 15.3125 29.6673H19.6875C20.0959 29.6673 20.4167 29.9882 20.4167 30.3965C20.4167 30.8048 20.0959 31.1257 19.6875 31.1257ZM24.7917 26.7507H10.2084V6.33398H24.7917V26.7507Z" fill="#666666"/>
</svg>
