<svg width="35" height="36" viewBox="0 0 35 36" fill="none" xmlns="http://www.w3.org/2000/svg">
<path d="M0 35.5L2.4602 26.5123C0.942081 23.8815 0.144375 20.8992 0.145833 17.841C0.150208 8.28021 7.9304 0.5 17.4898 0.5C22.1287 0.501458 26.4833 2.30833 29.7587 5.58667C33.0326 8.865 34.8351 13.2225 34.8337 17.8571C34.8293 27.4194 27.0491 35.1996 17.4898 35.1996C14.5877 35.1981 11.7279 34.4704 9.19477 33.0879L0 35.5ZM9.6206 29.9481C12.0648 31.3992 14.3981 32.2683 17.4839 32.2698C25.4289 32.2698 31.901 25.8035 31.9053 17.8542C31.9083 9.88875 25.4668 3.43125 17.4956 3.42833C9.54477 3.42833 3.07708 9.89458 3.07416 17.8425C3.0727 21.0873 4.02353 23.5169 5.6204 26.0588L4.16353 31.3787L9.6206 29.9481ZM26.2266 21.9798C26.1187 21.799 25.8299 21.691 25.3954 21.4738C24.9622 21.2565 22.8316 20.2079 22.4335 20.0635C22.0368 19.9192 21.7481 19.8463 21.4579 20.2808C21.1691 20.714 20.3379 21.691 20.0856 21.9798C19.8333 22.2685 19.5795 22.305 19.1464 22.0877C18.7133 21.8704 17.3162 21.414 15.661 19.9367C14.3733 18.7875 13.5027 17.3685 13.2504 16.934C12.9981 16.5008 13.2241 16.266 13.44 16.0502C13.6354 15.8563 13.8731 15.5442 14.0904 15.2904C14.3106 15.0396 14.3821 14.8588 14.5279 14.5685C14.6723 14.2798 14.6008 14.026 14.4914 13.8088C14.3821 13.5929 13.5158 11.4594 13.1556 10.5917C12.8027 9.74729 12.4454 9.86104 12.18 9.84792L11.3487 9.83333C11.06 9.83333 10.5904 9.94125 10.1937 10.3758C9.79706 10.8104 8.67706 11.8575 8.67706 13.991C8.67706 16.1246 10.2302 18.1852 10.446 18.474C10.6633 18.7627 13.5012 23.1406 17.8485 25.0175C18.8825 25.4638 19.6904 25.7306 20.3189 25.9304C21.3572 26.26 22.3022 26.2133 23.0489 26.1025C23.8816 25.9785 25.6127 25.054 25.9743 24.0419C26.336 23.0283 26.336 22.1606 26.2266 21.9798Z" fill="#666666"/>
</svg>
