<svg width="35" height="36" viewBox="0 0 35 36" fill="none" xmlns="http://www.w3.org/2000/svg">
<g clip-path="url(#clip0_153_1312)">
<path d="M0 17.3C0 9.38038 0 5.42061 2.4603 2.9603C4.92061 0.5 8.88038 0.5 16.8 0.5H18.2C26.1196 0.5 30.0794 0.5 32.5397 2.9603C35 5.42061 35 9.38038 35 17.3V18.7C35 26.6196 35 30.5794 32.5397 33.0397C30.0794 35.5 26.1196 35.5 18.2 35.5H16.8C8.88038 35.5 4.92061 35.5 2.4603 33.0397C0 30.5794 0 26.6196 0 18.7V17.3Z" fill="#666666"/>
<path d="M18.6229 25.7152C10.6458 25.7152 6.09589 20.2465 5.90631 11.1465H9.90214C10.0334 17.8257 12.9792 20.6548 15.3125 21.2382V11.1465H19.0751V16.9069C21.3793 16.659 23.7998 14.034 24.6165 11.1465H28.3791C27.752 14.7048 25.127 17.3298 23.2603 18.409C25.127 19.284 28.1167 21.5736 29.2542 25.7152H25.1124C24.2228 22.9444 22.0064 20.8007 19.0751 20.509V25.7152H18.6229Z" fill="white"/>
</g>
<defs>
<clipPath id="clip0_153_1312">
<rect width="35" height="35" fill="white" transform="translate(0 0.5)"/>
</clipPath>
</defs>
</svg>
