<svg width="138" height="36" viewBox="0 0 138 36" fill="none" xmlns="http://www.w3.org/2000/svg">
<g clip-path="url(#clip0_263_129)">
<mask id="mask0_263_129" style="mask-type:luminance" maskUnits="userSpaceOnUse" x="0" y="0" width="138" height="36">
<path d="M138 0H0V35.1004H138V0Z" fill="white"/>
</mask>
<g mask="url(#mask0_263_129)">
<path d="M52.7504 0.824219L40.8446 31.9305H47.2429L49.7136 25.4338H62.3543L64.8134 31.9305H71.163L59.3014 0.824219H52.7504ZM51.8817 19.7249L56.0472 8.779L60.1893 19.7249H51.8817Z" fill="#C0C0C0"/>
<path d="M126.676 9.68555C124.437 9.68555 122.249 10.3493 120.388 11.593C118.527 12.8365 117.076 14.6042 116.22 16.6722C115.363 18.7402 115.139 21.0159 115.575 23.2113C116.012 25.4067 117.09 27.4234 118.673 29.0062C120.256 30.589 122.272 31.667 124.468 32.1037C126.663 32.5403 128.939 32.3163 131.008 31.4596C133.075 30.603 134.843 29.1524 136.086 27.2912C137.33 25.43 137.993 23.2418 137.993 21.0034C137.993 18.0017 136.801 15.123 134.679 13.0005C132.557 10.8779 129.677 9.68555 126.676 9.68555ZM126.676 26.5182C125.585 26.5182 124.52 26.1948 123.613 25.5891C122.706 24.9832 122 24.1222 121.582 23.1147C121.165 22.1073 121.056 20.9987 121.269 19.9292C121.481 18.8598 122.006 17.8773 122.777 17.1063C123.549 16.3352 124.531 15.8101 125.6 15.5974C126.67 15.3847 127.778 15.4938 128.786 15.9112C129.793 16.3284 130.655 17.0351 131.261 17.9417C131.866 18.8484 132.189 19.9144 132.189 21.0049C132.191 21.7291 132.049 22.4467 131.772 23.1161C131.495 23.7855 131.09 24.3937 130.577 24.9059C130.065 25.4182 129.457 25.8242 128.787 26.1009C128.118 26.3775 127.401 26.5193 126.676 26.5182Z" fill="#C0C0C0"/>
<path d="M78.7871 23.9093L73.6191 10.0781H67.5164L75.8342 31.9317H81.8885L90.0578 10.0781H83.9551L78.7871 23.9093Z" fill="#C0C0C0"/>
<path d="M109.253 4.26953H103.445V10.0769H100.05V15.2948H103.445V24.5975C103.445 29.8639 106.35 32.1274 110.434 32.1274C111.82 32.1475 113.194 31.8791 114.471 31.3396V25.9262C113.776 26.1822 113.044 26.3179 112.304 26.3274C110.54 26.3274 109.253 25.6381 109.253 23.276V15.2948H114.471V10.0769H109.253V4.26953Z" fill="#C0C0C0"/>
<path d="M94.832 8.50339C97.1699 8.50339 99.0653 6.60816 99.0653 4.27025C99.0653 1.93235 97.1699 0.0371094 94.832 0.0371094C92.4942 0.0371094 90.5988 1.93235 90.5988 4.27025C90.5988 6.60816 92.4942 8.50339 94.832 8.50339Z" fill="#C0C0C0"/>
<path d="M97.736 10.0781H91.929V31.9317H97.736V10.0781Z" fill="#C0C0C0"/>
<path d="M11.3582 35.032C17.6104 35.032 22.6789 29.9635 22.6789 23.7113C22.6789 17.459 17.6104 12.3906 11.3582 12.3906C5.10593 12.3906 0.0374756 17.459 0.0374756 23.7113C0.0374756 29.9635 5.10593 35.032 11.3582 35.032Z" fill="#C0C0C0"/>
<path d="M30.9967 33.6032C34.7747 33.6032 37.8373 30.5405 37.8373 26.7625C37.8373 22.9845 34.7747 19.9219 30.9967 19.9219C27.2187 19.9219 24.156 22.9845 24.156 26.7625C24.156 30.5405 27.2187 33.6032 30.9967 33.6032Z" fill="#C0C0C0"/>
<path d="M13.5233 10.9155C15.8612 10.9155 17.7565 9.02026 17.7565 6.68236C17.7565 4.34447 15.8612 2.44922 13.5233 2.44922C11.1854 2.44922 9.29016 4.34447 9.29016 6.68236C9.29016 9.02026 11.1854 10.9155 13.5233 10.9155Z" fill="#C0C0C0"/>
<path d="M28.3392 18.4454C33.4224 18.4454 37.5433 14.3246 37.5433 9.24129C37.5433 4.15795 33.4224 0.0371094 28.3392 0.0371094C23.2558 0.0371094 19.135 4.15795 19.135 9.24129C19.135 14.3246 23.2558 18.4454 28.3392 18.4454Z" fill="#C0C0C0"/>
</g>
</g>
<defs>
<clipPath id="clip0_263_129">
<rect width="138" height="35.1004" fill="white"/>
</clipPath>
</defs>
</svg>
