<svg width="35" height="36" viewBox="0 0 35 36" fill="none" xmlns="http://www.w3.org/2000/svg">
<g clip-path="url(#clip0_263_127)">
<path d="M17.5 3.20215C22.1758 3.20215 22.7295 3.22266 24.5684 3.30469C26.2773 3.37988 27.2002 3.66699 27.8154 3.90625C28.6289 4.2207 29.2168 4.60352 29.8252 5.21191C30.4404 5.82715 30.8164 6.4082 31.1309 7.22168C31.3701 7.83691 31.6572 8.7666 31.7324 10.4688C31.8145 12.3145 31.835 12.8682 31.835 17.5371C31.835 22.2129 31.8145 22.7666 31.7324 24.6055C31.6572 26.3145 31.3701 27.2373 31.1309 27.8525C30.8164 28.666 30.4336 29.2539 29.8252 29.8623C29.21 30.4775 28.6289 30.8535 27.8154 31.168C27.2002 31.4072 26.2705 31.6943 24.5684 31.7695C22.7227 31.8516 22.1689 31.8721 17.5 31.8721C12.8242 31.8721 12.2705 31.8516 10.4316 31.7695C8.72266 31.6943 7.79981 31.4072 7.18457 31.168C6.37109 30.8535 5.7832 30.4707 5.17481 29.8623C4.55957 29.2471 4.18359 28.666 3.86914 27.8525C3.62988 27.2373 3.34277 26.3076 3.26758 24.6055C3.18555 22.7598 3.16504 22.2061 3.16504 17.5371C3.16504 12.8613 3.18555 12.3076 3.26758 10.4688C3.34277 8.75977 3.62988 7.83691 3.86914 7.22168C4.18359 6.4082 4.56641 5.82031 5.17481 5.21191C5.79004 4.59668 6.37109 4.2207 7.18457 3.90625C7.79981 3.66699 8.72949 3.37988 10.4316 3.30469C12.2705 3.22266 12.8242 3.20215 17.5 3.20215ZM17.5 0.0507812C12.749 0.0507812 12.1543 0.0712891 10.2881 0.15332C8.42871 0.235352 7.15039 0.536133 6.04297 0.966797C4.8877 1.41797 3.91016 2.0127 2.93945 2.99023C1.96191 3.96094 1.36719 4.93848 0.916016 6.08692C0.485352 7.20117 0.18457 8.47266 0.102539 10.332C0.0205078 12.2051 0 12.7998 0 17.5508C0 22.3018 0.0205078 22.8965 0.102539 24.7627C0.18457 26.6221 0.485352 27.9004 0.916016 29.0078C1.36719 30.1631 1.96191 31.1406 2.93945 32.1113C3.91016 33.082 4.8877 33.6836 6.03613 34.1279C7.15039 34.5586 8.42188 34.8594 10.2813 34.9414C12.1475 35.0234 12.7422 35.0439 17.4932 35.0439C22.2441 35.0439 22.8389 35.0234 24.7051 34.9414C26.5645 34.8594 27.8428 34.5586 28.9502 34.1279C30.0986 33.6836 31.0762 33.082 32.0469 32.1113C33.0176 31.1406 33.6191 30.1631 34.0635 29.0147C34.4941 27.9004 34.7949 26.6289 34.877 24.7695C34.959 22.9033 34.9795 22.3086 34.9795 17.5576C34.9795 12.8066 34.959 12.2119 34.877 10.3457C34.7949 8.48633 34.4941 7.20801 34.0635 6.10059C33.6328 4.93848 33.0381 3.96094 32.0606 2.99023C31.0898 2.01953 30.1123 1.41797 28.9639 0.973633C27.8496 0.542969 26.5781 0.242188 24.7188 0.160156C22.8457 0.0712891 22.251 0.0507812 17.5 0.0507812Z" fill="#C0C0C0"/>
<path d="M17.5 8.5625C12.5371 8.5625 8.51074 12.5889 8.51074 17.5518C8.51074 22.5146 12.5371 26.541 17.5 26.541C22.4629 26.541 26.4893 22.5146 26.4893 17.5518C26.4893 12.5889 22.4629 8.5625 17.5 8.5625ZM17.5 23.3828C14.2803 23.3828 11.6689 20.7715 11.6689 17.5518C11.6689 14.332 14.2803 11.7207 17.5 11.7207C20.7197 11.7207 23.3311 14.332 23.3311 17.5518C23.3311 20.7715 20.7197 23.3828 17.5 23.3828Z" fill="#C0C0C0"/>
<path d="M28.9434 8.20606C28.9434 9.36817 28 10.3047 26.8447 10.3047C25.6826 10.3047 24.7461 9.36133 24.7461 8.20606C24.7461 7.04395 25.6895 6.10742 26.8447 6.10742C28 6.10742 28.9434 7.05078 28.9434 8.20606Z" fill="#C0C0C0"/>
</g>
<defs>
<clipPath id="clip0_263_127">
<rect width="35" height="35" fill="white" transform="translate(0 0.0507812)"/>
</clipPath>
</defs>
</svg>
