<svg width="35" height="36" viewBox="0 0 35 36" fill="none" xmlns="http://www.w3.org/2000/svg">
<path d="M23.3333 1.50977H11.6666C9.24579 1.50977 7.29163 3.46393 7.29163 5.88477V29.2181C7.29163 31.6389 9.24579 33.5931 11.6666 33.5931H23.3333C25.7541 33.5931 27.7083 31.6389 27.7083 29.2181V5.88477C27.7083 3.46393 25.7541 1.50977 23.3333 1.50977ZM19.6875 30.6764H15.3125C14.9041 30.6764 14.5833 30.3556 14.5833 29.9473C14.5833 29.5389 14.9041 29.2181 15.3125 29.2181H19.6875C20.0958 29.2181 20.4166 29.5389 20.4166 29.9473C20.4166 30.3556 20.0958 30.6764 19.6875 30.6764ZM24.7916 26.3014H10.2083V5.88477H24.7916V26.3014Z" fill="#C0C0C0"/>
</svg>
