<svg width="35" height="36" viewBox="0 0 35 36" fill="none" xmlns="http://www.w3.org/2000/svg">
<path d="M0 35.0508L2.4602 26.0631C0.942081 23.4322 0.144375 20.4499 0.145833 17.3918C0.150208 7.83099 7.9304 0.0507812 17.4898 0.0507812C22.1287 0.0522396 26.4833 1.85911 29.7587 5.13745C33.0326 8.41578 34.8351 12.7733 34.8337 17.4079C34.8293 26.9702 27.0491 34.7504 17.4898 34.7504C14.5877 34.7489 11.7279 34.0212 9.19477 32.6387L0 35.0508ZM9.6206 29.4989C12.0648 30.9499 14.3981 31.8191 17.4839 31.8206C25.4289 31.8206 31.901 25.3543 31.9053 17.4049C31.9083 9.43953 25.4668 2.98203 17.4956 2.97911C9.54477 2.97911 3.07708 9.44536 3.07416 17.3933C3.0727 20.6381 4.02353 23.0677 5.6204 25.6095L4.16353 30.9295L9.6206 29.4989ZM26.2266 21.5306C26.1187 21.3497 25.8299 21.2418 25.3954 21.0245C24.9622 20.8072 22.8316 19.7587 22.4335 19.6143C22.0368 19.4699 21.7481 19.397 21.4579 19.8316C21.1691 20.2647 20.3379 21.2418 20.0856 21.5306C19.8333 21.8193 19.5795 21.8558 19.1464 21.6385C18.7133 21.4212 17.3162 20.9647 15.661 19.4874C14.3733 18.3383 13.5027 16.9193 13.2504 16.4847C12.9981 16.0516 13.2241 15.8168 13.44 15.601C13.6354 15.407 13.8731 15.0949 14.0904 14.8412C14.3106 14.5904 14.3821 14.4095 14.5279 14.1193C14.6723 13.8306 14.6008 13.5768 14.4914 13.3595C14.3821 13.1437 13.5158 11.0102 13.1556 10.1424C12.8027 9.29807 12.4454 9.41182 12.18 9.3987L11.3487 9.38412C11.06 9.38412 10.5904 9.49203 10.1937 9.92661C9.79706 10.3612 8.67706 11.4083 8.67706 13.5418C8.67706 15.6754 10.2302 17.736 10.446 18.0247C10.6633 18.3135 13.5012 22.6914 17.8485 24.5683C18.8825 25.0145 19.6904 25.2814 20.3189 25.4812C21.3572 25.8108 22.3022 25.7641 23.0489 25.6533C23.8816 25.5293 25.6127 24.6047 25.9743 23.5927C26.336 22.5791 26.336 21.7114 26.2266 21.5306Z" fill="#C0C0C0"/>
</svg>
