<svg width="35" height="36" viewBox="0 0 35 36" fill="none" xmlns="http://www.w3.org/2000/svg">
<g clip-path="url(#clip0_263_126)">
<path d="M0 16.8508C0 8.93116 0 4.97139 2.4603 2.51108C4.92061 0.0507812 8.88038 0.0507812 16.8 0.0507812H18.2C26.1196 0.0507812 30.0794 0.0507812 32.5397 2.51108C35 4.97139 35 8.93116 35 16.8508V18.2508C35 26.1704 35 30.1301 32.5397 32.5905C30.0794 35.0508 26.1196 35.0508 18.2 35.0508H16.8C8.88038 35.0508 4.92061 35.0508 2.4603 32.5905C0 30.1301 0 26.1704 0 18.2508V16.8508Z" fill="#C0C0C0"/>
<path d="M18.623 25.266C10.6459 25.266 6.09596 19.7973 5.90637 10.6973H9.90221C10.0335 17.3764 12.9792 20.2056 15.3125 20.7889V10.6973H19.0752V16.4577C21.3794 16.2098 23.7999 13.5848 24.6166 10.6973H28.3791C27.7521 14.2556 25.1271 16.8806 23.2604 17.9598C25.1271 18.8348 28.1168 21.1244 29.2543 25.266H25.1125C24.2229 22.4952 22.0064 20.3514 19.0752 20.0598V25.266H18.623Z" fill="#7D7D7D"/>
</g>
<defs>
<clipPath id="clip0_263_126">
<rect width="35" height="35" fill="white" transform="translate(0 0.0507812)"/>
</clipPath>
</defs>
</svg>
