<svg width="102" height="102" viewBox="0 0 102 102" fill="none" xmlns="http://www.w3.org/2000/svg">
<path d="M50.6016 27.4922C50.8009 27.5466 50.8009 27.5466 51.0042 27.602C57.7575 29.4852 63.324 34.2775 66.8091 40.2687C66.9764 40.7534 66.9347 40.9655 66.7383 41.4375C66.4332 41.8095 66.4332 41.8095 66.041 42.2095C62.4177 46.177 61.1412 51.0145 61.3301 56.2763C61.3751 57.0456 61.4631 57.8057 61.5586 58.5703C58.1572 60.8502 54.7356 63.0992 51.3136 65.348C50.1682 66.1009 49.0229 66.8541 47.8779 67.6075C47.7207 67.711 47.5635 67.8144 47.4016 67.921C46.7719 68.3353 46.1423 68.7496 45.5127 69.164C43.7689 70.3116 42.0246 71.4583 40.2788 72.6028C39.8043 72.914 39.3298 73.2253 38.8553 73.5366C38.4139 73.826 37.9724 74.115 37.5308 74.404C37.3257 74.5386 37.3257 74.5386 37.1165 74.6759C36.8533 74.8485 36.5899 75.0207 36.3261 75.1924C35.5793 75.6815 34.8671 76.2 34.1567 76.7413C33.5208 77.1887 33.3341 77.2941 32.5318 77.3288C29.6385 76.3107 27.1009 74.1938 24.9024 72.1172C24.7552 71.9829 24.6081 71.8486 24.4564 71.7102C19.8053 67.3069 17.0802 60.7034 16.8931 54.3385C16.7858 46.6091 19.243 39.926 24.6141 34.2876C31.2138 27.5331 41.5246 24.9082 50.6016 27.4922ZM42.0352 31.2774C41.8081 31.9406 41.8051 32.5835 41.795 33.2803C41.7911 33.5235 41.7871 33.7667 41.783 34.0173C41.778 34.4099 41.778 34.4099 41.7729 34.8104C41.7688 35.0817 41.7646 35.353 41.7604 35.6243C41.7494 36.337 41.7395 37.0497 41.7299 37.7623C41.7199 38.4901 41.7088 39.2179 41.6978 39.9457C41.6764 41.3727 41.6562 42.7996 41.6367 44.2266C41.4894 44.2778 41.342 44.3289 41.1902 44.3816C40.9952 44.4507 40.8003 44.5197 40.5994 44.5908C40.4068 44.6584 40.2143 44.726 40.0159 44.7956C37.728 45.7092 36.1144 47.4229 35.0999 49.6312C34.184 51.8456 34.2142 54.0834 34.9995 56.3517C35.9847 58.6992 37.5446 60.3114 39.8469 61.4014C42.1377 62.3123 44.4014 62.4014 46.6927 61.4901C49.2602 60.3158 50.9578 58.6526 51.9961 55.9805C52.7925 53.6299 52.454 51.2361 51.4732 48.9954C50.201 46.6398 48.1474 45.2133 45.6779 44.3589C45.2379 44.208 45.2379 44.208 44.8242 44.2266C44.8269 43.9896 44.8269 43.9896 44.8296 43.7479C44.8456 42.2588 44.8577 40.7698 44.8655 39.2807C44.8697 38.5151 44.8753 37.7496 44.8843 36.9841C44.893 36.2452 44.8978 35.5064 44.8998 34.7675C44.9013 34.4857 44.9042 34.2039 44.9085 33.9221C44.9143 33.5272 44.9146 33.1323 44.9147 32.7375C44.9173 32.4004 44.9173 32.4004 44.9201 32.0564C44.8023 31.3439 44.5974 31.1105 44.0274 30.6797C43.1602 30.5532 42.6505 30.6392 42.0352 31.2774Z" fill="#D2D2D2"/>
<path d="M83.8711 39.6453C83.5642 40.4951 82.9255 40.9179 82.2275 41.4383C81.975 41.6321 81.7229 41.8264 81.4711 42.0211C81.3413 42.1215 81.2115 42.2218 81.0778 42.3251C78.7196 44.1705 76.2822 46.0863 75.7031 49.2078C75.5396 52.0573 75.8665 54.2695 77.6953 56.5789C79.2889 58.2257 81.2629 59.1742 83.5554 59.2761C86.8208 59.3111 89.1985 57.8201 91.5441 55.6388C92.0493 55.175 92.5663 54.7341 93.0974 54.3003C93.2528 54.1732 93.4081 54.0461 93.5682 53.9151C94.0402 53.5844 94.4854 53.383 95.0273 53.1922C95.2168 57.739 94.1833 61.7133 91.043 65.1453C90.9254 65.2811 90.8077 65.417 90.6866 65.557C88.9057 67.4931 86.5542 68.7442 84.0703 69.5281C83.9247 69.5746 83.7791 69.6211 83.6291 69.669C80.0774 70.6165 76.4794 70.0214 73.1133 68.7312C72.9782 68.6511 72.8431 68.571 72.7039 68.4884C72.0906 68.2421 71.7568 68.3453 71.1211 68.532C70.5671 68.9417 70.0982 69.427 69.6177 69.9192C69.4721 70.0643 69.3264 70.2095 69.1764 70.359C68.6956 70.8395 68.2185 71.3234 67.7414 71.8075C67.4072 72.143 67.0728 72.4784 66.7382 72.8135C65.8571 73.6973 64.9791 74.584 64.1017 75.4714C63.3877 76.1924 62.6716 76.9111 61.9554 77.6298C61.0983 78.4898 60.2424 79.3507 59.3866 80.212C59.2245 80.3751 59.0624 80.5382 58.8954 80.7062C58.4329 81.172 57.9712 81.6384 57.5097 82.105C57.3076 82.3083 57.3076 82.3083 57.1015 82.5157C56.3381 83.2894 55.6105 84.0846 54.8996 84.9068C54.5027 85.3618 54.0886 85.7974 53.6672 86.2298C53.5008 86.4007 53.3345 86.5716 53.163 86.7476C52.4066 87.5184 51.6486 88.2876 50.8889 89.0551C50.4904 89.458 50.094 89.8628 49.6992 90.2693C49.2164 90.7665 48.73 91.26 48.2412 91.7512C47.9708 92.0247 47.7038 92.3015 47.437 92.5784C45.4796 94.5296 43.0868 95.7934 40.292 95.8872C37.6973 95.8317 35.6434 94.9738 33.7302 93.2351C31.7543 91.1715 31.1715 88.7175 31.2236 85.9364C31.3265 83.5954 32.4329 81.7016 34.0812 80.0781C35.2527 79.0865 36.571 78.2981 37.8713 77.489C39.1427 76.6973 40.3929 75.8783 41.6367 75.044C43.6221 73.7137 45.6155 72.3961 47.6133 71.0845C47.8356 70.9385 47.8356 70.9385 48.0625 70.7895C49.6516 69.7459 51.2414 68.7034 52.8319 67.662C54.2741 66.7176 55.7151 65.7715 57.155 64.8236C57.444 64.6333 57.7331 64.4432 58.0222 64.253C58.9459 63.6455 59.8687 63.0368 60.7903 62.4262C61.0846 62.2316 61.3791 62.0373 61.6739 61.8434C62.0818 61.575 62.4888 61.3051 62.8955 61.0349C63.017 60.9554 63.1385 60.8759 63.2637 60.794C63.8288 60.4163 64.1639 60.1417 64.5469 59.5672C64.4879 58.8478 64.3868 58.1662 64.2434 57.4598C63.6212 52.9924 64.5022 48.6761 67.2239 45.0367C67.4553 44.7624 67.692 44.4926 67.9336 44.2273C68.0684 44.0766 68.2032 43.9258 68.3421 43.7705C69.4121 42.6359 70.5659 41.8094 71.918 41.0398C72.0754 40.9476 72.2328 40.8554 72.395 40.7605C75.869 38.865 80.0843 38.6451 83.8711 39.6453Z" fill="#D2D2D2"/>
<path d="M51 17.9292C51.1678 17.9709 51.3356 18.0126 51.5085 18.0556C57.506 19.5828 62.9189 22.2669 67.4869 26.4847C67.8721 26.8377 68.2649 27.1725 68.6682 27.5042C70.9468 29.4464 72.8323 32.1903 74.3709 34.7383C74.4463 34.8626 74.5218 34.9869 74.5995 35.115C74.9259 35.6731 75.1055 35.9979 75.1055 36.6558C74.9008 36.7282 74.6961 36.8006 74.4853 36.8752C72.9617 37.4249 71.5413 37.9977 70.1522 38.8464C69.7266 39.0464 69.7266 39.0464 69.1289 38.8472C68.816 38.3751 68.5282 37.9046 68.2449 37.4153C67.2377 35.7427 66.0683 34.302 64.7461 32.8706C64.5869 32.695 64.4277 32.5193 64.2636 32.3383C59.0989 26.8964 51.6316 24.0169 44.2281 23.6692C39.2571 23.5905 34.5291 24.6682 30.082 26.8941C29.8807 26.9922 29.6794 27.0903 29.4719 27.1913C27.1188 28.4021 25.0126 30.048 23.1094 31.8745C22.9337 32.0376 22.7581 32.2007 22.5771 32.3687C17.482 37.2407 14.2817 44.4862 14.0846 51.5427C14.0807 52.0008 14.08 52.4589 14.0823 52.917C14.0834 53.1605 14.0845 53.4039 14.0857 53.6547C14.1933 61.7517 17.6884 68.8598 23.3545 74.5556C25.5123 76.5869 28.0399 78.1634 30.6797 79.4878C30.404 80.2172 30.0689 80.8831 29.6961 81.5672C29.0178 82.8987 28.7361 84.194 28.4883 85.6636C26.4414 84.7517 24.5259 83.8072 22.7109 82.4761C22.5027 82.3246 22.2944 82.1731 22.0798 82.017C14.2273 76.1961 9.38232 67.7388 7.83179 58.145C6.46536 48.8393 9.00326 39.1663 14.5648 31.6255C15.2982 30.6585 16.1007 29.7679 16.9336 28.8863C17.1586 28.6214 17.3828 28.3558 17.606 28.0894C22.2871 22.7713 29.0537 19.5161 35.8594 17.9292C36.0579 17.8803 36.0579 17.8803 36.2603 17.8304C40.7663 16.7629 46.5126 16.7931 51 17.9292Z" fill="#D2D2D2"/>
<path d="M47.4141 48.4109C48.778 49.6976 49.4091 51.2129 49.4934 53.0677C49.4401 54.724 48.9057 56.2672 47.7518 57.4762C46.3888 58.679 44.8897 59.2788 43.0577 59.2178C41.2796 59.0126 39.8917 58.3163 38.6967 56.9859C37.3928 55.3387 37.2214 53.6631 37.4531 51.5984C38.0032 49.8391 39.0057 48.5135 40.6118 47.6039C42.9293 46.5245 45.3558 47.0104 47.4141 48.4109Z" fill="#D2D2D2"/>
<path d="M70.3242 16.7338C70.6735 16.9853 70.6735 16.9853 71.0476 17.3248C71.1878 17.4519 71.3279 17.579 71.4723 17.71C72.2483 18.4384 73.0102 19.18 73.7662 19.9291C74.0208 20.1813 74.0208 20.1813 74.2805 20.4386C74.6362 20.7915 74.9916 21.1448 75.3468 21.4983C75.7105 21.8597 76.0751 22.2202 76.4405 22.5798C76.9705 23.1013 77.4977 23.6254 78.0245 24.1501C78.1884 24.3105 78.3523 24.4709 78.5212 24.6362C78.6716 24.7872 78.822 24.9382 78.977 25.0937C79.1097 25.2253 79.2425 25.3569 79.3793 25.4925C79.7415 25.969 79.8326 26.3014 79.8867 26.894C79.4813 28.144 78.4785 28.9667 77.5583 29.8574C77.3201 30.0916 77.3201 30.0916 77.077 30.3305C76.6868 30.7137 76.2952 31.0955 75.9023 31.476C75.1602 31.2286 75.054 30.9825 74.6199 30.343C72.3572 27.1461 69.6575 24.4688 66.5391 22.1127C66.3634 21.9794 66.1878 21.8462 66.0068 21.7088C65.6543 21.4432 65.3001 21.1799 64.9453 20.9174C65.7397 19.9414 66.5977 19.0438 67.4854 18.1533C67.6584 17.9789 67.6584 17.9789 67.8349 17.801C68.6803 16.9585 69.103 16.5529 70.3242 16.7338Z" fill="#D2D2D2"/>
<path d="M17.7305 16.7343C18.3306 17.1255 18.8165 17.6262 19.3242 18.1288C19.5352 18.3303 19.7464 18.5316 19.9577 18.7327C20.1785 18.9462 20.3989 19.1599 20.6191 19.3739C20.7808 19.5291 20.7808 19.5291 20.9457 19.6874C21.2138 19.9534 21.4658 20.2355 21.7148 20.5195C21.7148 20.7167 21.7148 20.9139 21.7148 21.1171C21.2457 21.5019 20.7783 21.8523 20.283 22.2004C18.7233 23.3311 17.3216 24.5614 15.9375 25.8984C15.8078 26.0178 15.6781 26.1372 15.5445 26.2602C13.9311 27.7821 12.631 29.6714 11.3555 31.4765C10.324 31.021 9.6206 30.2291 8.82788 29.4469C8.67161 29.2989 8.51535 29.1508 8.35435 28.9983C7.69839 28.3514 7.23385 27.8424 6.88161 26.9839C7.09658 25.3616 9.07109 23.9699 10.1889 22.8548C10.3585 22.6851 10.528 22.5154 10.7027 22.3405C11.0582 21.9848 11.414 21.6294 11.77 21.2743C12.3167 20.7286 12.8624 20.1819 13.408 19.635C13.7543 19.2888 14.1008 18.9426 14.4473 18.5965C14.6108 18.4326 14.7743 18.2687 14.9428 18.0998C15.0938 17.9494 15.2448 17.799 15.4004 17.6441C15.5333 17.5113 15.6663 17.3785 15.8032 17.2417C16.4276 16.6647 16.8945 16.6104 17.7305 16.7343Z" fill="#D2D2D2"/>
<path d="M47.7923 8.02351C49.3138 9.27071 50.0864 10.6625 50.5518 12.5627C50.5953 13.0743 50.6065 13.5682 50.6047 14.081C50.6042 14.2421 50.6038 14.4033 50.6033 14.5693C50.6025 14.7532 50.6025 14.7532 50.6016 14.9409C50.3712 14.9122 50.1409 14.8834 49.9035 14.8538C45.3747 14.3331 40.7778 14.339 36.2578 14.9409C36.1407 12.6989 36.4566 10.8427 37.8368 9.02272C40.4746 6.10669 44.6342 5.75258 47.7923 8.02351Z" fill="#D2D2D2"/>
<path d="M72.665 71.5195C73.3125 71.7188 73.3125 71.7188 73.7109 71.918C71.6451 77.5666 64.9579 82.5076 59.7656 85.0664C59.3713 85.2109 58.9742 85.3495 58.5703 85.4648C58.8919 84.6574 59.4661 84.1186 60.074 83.5207C60.1868 83.4081 60.2995 83.2956 60.4157 83.1797C60.7885 82.8082 61.1627 82.4381 61.5368 82.068C61.797 81.8091 62.0571 81.55 62.3171 81.2909C63.0022 80.6084 63.6885 79.927 64.3751 79.2459C65.4714 78.1582 66.5663 77.0692 67.6606 75.9795C68.0417 75.6004 68.4235 75.222 68.8054 74.8437C69.0417 74.6087 69.278 74.3737 69.5143 74.1387C69.6193 74.0351 69.7243 73.9314 69.8324 73.8246C70.4813 73.1777 71.0658 72.5073 71.626 71.7815C71.918 71.5195 71.918 71.5195 72.665 71.5195Z" fill="#D2D2D2"/>
</svg>
