<svg width="102" height="102" viewBox="0 0 102 102" fill="none" xmlns="http://www.w3.org/2000/svg">
<path d="M33.0703 56.1797C44.9039 56.1797 56.7375 56.1797 68.9297 56.1797C68.7484 57.0859 68.4712 57.8094 68.0822 58.6333C68.0161 58.7759 67.9499 58.9185 67.8817 59.0654C67.7385 59.3739 67.5948 59.6822 67.4506 59.9904C67.0608 60.824 66.6747 61.6594 66.2885 62.4948C66.209 62.6664 66.1296 62.8381 66.0478 63.015C65.2676 64.7046 64.5134 66.4052 63.7625 68.1079C62.5815 70.7828 61.3671 73.4407 60.1361 76.0929C58.971 78.6046 57.8345 81.1276 56.7159 83.6604C55.7246 85.904 54.7081 88.1338 53.6692 90.3558C52.8222 92.1684 52.0016 93.9915 51.1992 95.8242C51.0677 95.8242 50.9363 95.8242 50.8008 95.8242C49.1731 92.285 47.5575 88.7413 45.9822 85.1785C44.951 82.8465 43.8976 80.5276 42.816 78.2185C41.9588 76.3819 41.1353 74.5316 40.3169 72.6775C38.9814 69.6524 37.6028 66.6485 36.2048 63.6518C35.7558 62.6893 35.3087 61.7259 34.8633 60.7617C34.7799 60.5813 34.6964 60.401 34.6105 60.2151C34.357 59.6654 34.1052 59.1149 33.854 58.5641C33.7754 58.3941 33.6969 58.224 33.6159 58.0488C33.5086 57.8122 33.5086 57.8122 33.3991 57.5707C33.3354 57.4316 33.2718 57.2926 33.2063 57.1493C33.0703 56.7773 33.0703 56.7773 33.0703 56.1797Z" fill="#D2D2D2"/>
<path d="M10.5586 56.1797C17.33 56.1797 24.1015 56.1797 31.0781 56.1797C33.9844 62.4393 33.9844 62.4393 35.0091 64.7765C36.2339 67.5673 37.4991 70.338 38.7854 73.1008C39.9674 75.6399 41.137 78.183 42.2759 80.7418C43.0636 82.5096 43.868 84.2692 44.6761 86.0278C45.8325 88.545 46.9697 91.0655 48.0117 93.6328C47.4189 93.366 47.0032 93.0726 46.5443 92.614C46.415 92.4858 46.2858 92.3575 46.1526 92.2254C46.0123 92.0842 45.872 91.943 45.7274 91.7975C45.5019 91.5729 45.5019 91.5729 45.2717 91.3438C44.7667 90.8403 44.2631 90.3354 43.7594 89.8305C43.3983 89.4699 43.037 89.1093 42.6757 88.7489C41.7956 87.8704 40.9165 86.991 40.0378 86.1112C39.3239 85.3965 38.6097 84.6821 37.8952 83.968C37.7936 83.8665 37.6919 83.7649 37.5872 83.6603C37.3808 83.454 37.1744 83.2476 36.9679 83.0413C35.0319 81.1064 33.0971 79.1703 31.1627 77.2338C29.5014 75.5707 27.8391 73.9088 26.1761 72.2475C24.2459 70.3195 22.3164 68.3908 20.3879 66.4611C20.1825 66.2556 19.977 66.05 19.7716 65.8445C19.6705 65.7433 19.5694 65.6422 19.4653 65.5379C18.7515 64.8238 18.0373 64.1102 17.3228 63.3967C16.3624 62.4374 15.403 61.4772 14.4443 60.5162C14.0913 60.1626 13.7379 59.8094 13.3842 59.4566C12.9035 58.9769 12.424 58.4961 11.9448 58.015C11.8028 57.8738 11.6607 57.7326 11.5143 57.5871C11.3871 57.4589 11.2599 57.3306 11.1288 57.1985C11.0179 57.0875 10.907 56.9765 10.7927 56.8622C10.5586 56.5781 10.5586 56.5781 10.5586 56.1797Z" fill="#D2D2D2"/>
<path d="M70.9219 56.1797C77.6933 56.1797 84.4648 56.1797 91.4414 56.1797C91.1105 56.8414 90.9191 57.1502 90.4215 57.6471C90.293 57.7764 90.1645 57.9056 90.0321 58.0388C89.8907 58.1791 89.7492 58.3194 89.6034 58.464C89.4534 58.6144 89.3034 58.7647 89.1488 58.9197C88.6444 59.4247 88.1386 59.9283 87.6328 60.432C87.2715 60.7931 86.9103 61.1544 86.5492 61.5157C85.7708 62.2942 84.9918 63.0721 84.2123 63.8494C83.0851 64.9733 81.9591 66.0982 80.8334 67.2235C79.0069 69.0491 77.1796 70.8738 75.3517 72.6979C73.576 74.4699 71.8008 76.2424 70.0261 78.0153C69.9167 78.1246 69.8073 78.2339 69.6946 78.3465C69.1458 78.8947 68.5971 79.443 68.0483 79.9912C63.4957 84.5397 58.9417 89.0867 54.3867 93.6328C54.2552 93.5671 54.1238 93.5013 53.9883 93.4336C54.0742 93.2479 54.1601 93.0621 54.2486 92.8708C55.8625 89.3791 57.4637 85.8829 59.0186 82.3645C60.0455 80.0407 61.0946 77.7301 62.1723 75.4293C63.0295 73.5927 63.853 71.7425 64.6714 69.8884C66.0352 66.7987 67.4448 63.7315 68.871 60.6701C68.9487 60.5034 69.0263 60.3367 69.1063 60.165C69.2504 59.8559 69.3946 59.5469 69.539 59.238C70.0123 58.2234 70.467 57.2032 70.9219 56.1797Z" fill="#D2D2D2"/>
<path d="M50.8008 32.6719C51.6411 32.9785 52.0641 33.5995 52.5813 34.2905C52.7758 34.5444 52.9707 34.7981 53.1657 35.0516C53.2674 35.1842 53.3691 35.3168 53.4738 35.4534C53.9988 36.1295 54.5417 36.7908 55.084 37.4531C55.9822 38.5533 56.8667 39.6628 57.7408 40.7823C58.4384 41.6734 59.1497 42.5529 59.8652 43.4297C60.7632 44.5301 61.6479 45.6394 62.522 46.7588C63.2196 47.65 63.931 48.5294 64.6465 49.4062C65.4984 50.4521 66.3478 51.4999 67.1865 52.5564C67.3258 52.7299 67.3258 52.7299 67.4678 52.907C67.8575 53.4004 68.1314 53.7847 68.332 54.3867C56.8929 54.3867 45.4537 54.3867 33.668 54.3867C33.9938 53.7351 34.2746 53.2965 34.7263 52.7432C34.8681 52.5685 35.0098 52.3939 35.1559 52.214C35.4055 51.9089 35.4055 51.9089 35.6602 51.5977C36.0797 51.0833 36.4988 50.5685 36.9177 50.0537C37.0293 49.9168 37.1408 49.7798 37.2557 49.6387C38.052 48.6592 38.8348 47.6699 39.6117 46.675C40.4171 45.6461 41.2417 44.6334 42.0678 43.6211C42.7634 42.7674 43.4492 41.907 44.127 41.0391C44.9123 40.0333 45.7108 39.0394 46.5176 38.0508C47.5388 36.7994 48.5435 35.5362 49.5378 34.2633C49.9553 33.73 50.3766 33.1999 50.8008 32.6719Z" fill="#D2D2D2"/>
<path d="M27.8906 32.0742C34.8593 32.0742 41.828 32.0742 49.0078 32.0742C48.7105 32.6687 48.4897 33.0548 48.081 33.5481C47.9767 33.675 47.8725 33.8018 47.7651 33.9325C47.5975 34.1344 47.5975 34.1344 47.4265 34.3403C47.1897 34.6284 46.9532 34.9166 46.7168 35.2049C46.5987 35.3489 46.4805 35.493 46.3588 35.6414C45.8763 36.2347 45.4058 36.837 44.9363 37.4407C44.0036 38.637 43.0412 39.8072 42.0738 40.9755C41.256 41.9653 40.4563 42.9672 39.6671 43.9799C38.9735 44.8682 38.2654 45.7441 37.5527 46.6172C36.6374 47.7386 35.7359 48.8695 34.8448 50.0102C34.0042 51.0843 33.1424 52.1401 32.2734 53.1914C31.8283 52.7462 31.794 52.5849 31.6758 51.9852C31.6418 51.8162 31.6077 51.6472 31.5726 51.4731C31.5367 51.2873 31.5009 51.1016 31.464 50.9102C31.4251 50.7148 31.3862 50.5195 31.3461 50.3182C31.2174 49.6703 31.0909 49.0219 30.9645 48.3736C30.8759 47.9244 30.7871 47.4753 30.6982 47.0262C30.5121 46.084 30.327 45.1416 30.1426 44.1991C29.906 42.9893 29.6676 41.78 29.4285 40.5707C29.2451 39.643 29.0624 38.7151 28.8799 37.7872C28.7922 37.3412 28.7043 36.8952 28.6163 36.4492C28.4937 35.8264 28.3717 35.2035 28.2501 34.5805C28.2134 34.3951 28.1768 34.2097 28.1391 34.0187C28.1061 33.8492 28.0732 33.6796 28.0392 33.5049C27.9959 33.284 27.9959 33.284 27.9517 33.0585C27.8906 32.6719 27.8906 32.6719 27.8906 32.0742Z" fill="#D2D2D2"/>
<path d="M52.9922 32.0742C59.9609 32.0742 66.9295 32.0742 74.1094 32.0742C73.875 33.5977 73.6406 35.1062 73.3428 36.6159C73.3085 36.7925 73.2741 36.969 73.2386 37.151C73.1269 37.7236 73.0143 38.2962 72.9016 38.8687C72.8227 39.2705 72.7439 39.6723 72.665 40.0741C72.5006 40.9105 72.3358 41.7468 72.1707 42.5831C71.9589 43.6562 71.7491 44.7297 71.5397 45.8033C71.3781 46.6305 71.215 47.4574 71.0516 48.2842C70.9736 48.6803 70.896 49.0764 70.819 49.4726C70.7118 50.0236 70.6027 50.5742 70.4931 51.1247C70.4616 51.2887 70.4301 51.4527 70.3977 51.6217C70.1705 52.7475 70.1705 52.7475 69.7266 53.1914C68.5175 51.7836 67.3341 50.3616 66.1941 48.8972C65.4905 47.9948 64.7726 47.1051 64.0488 46.2188C63.1508 45.1184 62.2661 44.009 61.3921 42.8896C60.5866 41.8606 59.7619 40.8478 58.9356 39.8355C58.1547 38.8771 57.3886 37.9082 56.6296 36.9323C56.1051 36.2614 55.5698 35.6011 55.0248 34.9465C54.8963 34.7921 54.7677 34.6376 54.6353 34.4784C54.3819 34.1749 54.1276 33.872 53.8724 33.57C53.7578 33.4328 53.6433 33.2957 53.5253 33.1544C53.4224 33.0323 53.3195 32.9103 53.2134 32.7845C52.9922 32.4727 52.9922 32.4727 52.9922 32.0742Z" fill="#D2D2D2"/>
<path d="M26.0977 33.4688C26.2949 33.5674 26.2949 33.5674 26.4961 33.668C26.6073 34.0051 26.6073 34.0051 26.6953 34.4518C26.7293 34.6205 26.7634 34.7892 26.7985 34.963C26.8343 35.1495 26.8702 35.336 26.9071 35.5282C26.9655 35.8211 26.9655 35.8211 27.025 36.12C27.1539 36.769 27.2803 37.4184 27.4066 38.0679C27.4952 38.5173 27.584 38.9667 27.6729 39.4161C27.8591 40.3595 28.0442 41.3031 28.2285 42.2468C28.4649 43.4582 28.7034 44.6691 28.9426 45.8799C29.126 46.8085 29.3087 47.7372 29.4912 48.6659C29.5789 49.1125 29.6668 49.5591 29.7548 50.0056C29.8774 50.6294 29.9994 51.2533 30.121 51.8773C30.1577 52.063 30.1943 52.2487 30.232 52.44C30.265 52.6098 30.2979 52.7797 30.3319 52.9547C30.3608 53.1022 30.3896 53.2498 30.4194 53.4018C30.4805 53.7891 30.4805 53.7891 30.4805 54.3867C23.7748 54.3867 17.0691 54.3867 10.1602 54.3867C10.6856 53.4672 11.0584 52.823 11.7166 52.0583C12.5891 51.0148 13.407 49.937 14.2192 48.8459C15.269 47.4374 16.3344 46.0444 17.4246 44.667C18.7101 43.0429 19.9588 41.3896 21.2168 39.7441C21.6484 39.1796 22.08 38.6152 22.5117 38.0508C22.6054 37.9283 22.699 37.8059 22.7955 37.6797C23.8797 36.2626 24.9761 34.8566 26.0977 33.4688Z" fill="#D2D2D2"/>
<path d="M75.7031 33.4688C76.4547 34.1945 77.1215 34.9538 77.77 35.7722C77.8717 35.8998 77.9734 36.0274 78.0781 36.1589C79.0698 37.4121 80.0255 38.6918 80.9805 39.973C81.8905 41.1925 82.8202 42.3939 83.7645 43.5869C85.163 45.3538 86.5206 47.1535 87.8884 48.9441C88.4875 49.7282 89.0884 50.5108 89.6917 51.2916C91.8398 54.0735 91.8398 54.0735 91.8398 54.3867C85.1341 54.3867 78.4284 54.3867 71.5195 54.3867C71.7542 52.8616 71.9889 51.3526 72.2892 49.8418C72.3239 49.665 72.3586 49.4881 72.3944 49.3058C72.5072 48.7322 72.6207 48.1587 72.7343 47.5853C72.8137 47.183 72.893 46.7807 72.9724 46.3784C73.1376 45.5412 73.3032 44.704 73.4692 43.8669C73.6822 42.7919 73.894 41.7166 74.1055 40.6413C74.2686 39.8134 74.4323 38.9856 74.5962 38.1578C74.6747 37.761 74.7529 37.3642 74.8309 36.9673C74.9394 36.4159 75.0488 35.8648 75.1584 35.3137C75.1906 35.1489 75.2228 34.9842 75.256 34.8145C75.4812 33.6907 75.4812 33.6907 75.7031 33.4688Z" fill="#D2D2D2"/>
<path d="M58.9688 6.17578C60.1838 6.52376 61.2161 7.13331 62.3002 7.76681C62.9395 8.12192 63.3944 8.36259 64.1329 8.38431C65.0354 8.0659 65.8524 7.622 66.6885 7.15942C67.0274 6.97376 67.3667 6.78877 67.7064 6.60457C67.8552 6.52237 68.0041 6.44018 68.1575 6.3555C68.5312 6.17578 68.5312 6.17578 68.9297 6.17578C68.9116 6.29521 68.8935 6.41464 68.8748 6.53769C68.7924 7.08512 68.7116 7.63276 68.6309 8.18042C68.6024 8.36827 68.5738 8.55613 68.5445 8.74967C68.3001 10.2487 68.3001 10.2487 68.332 11.7539C68.7435 12.2841 68.7435 12.2841 69.3281 12.75C69.5511 12.9648 69.7723 13.1815 69.9919 13.3998C70.1056 13.5116 70.2192 13.6235 70.3363 13.7387C70.4515 13.8521 70.5666 13.9655 70.6853 14.0823C70.8043 14.198 70.9234 14.3137 71.046 14.4329C71.3442 14.7277 71.6321 15.033 71.918 15.3398C71.918 15.4713 71.918 15.6028 71.918 15.7383C71.7663 15.7541 71.6146 15.7699 71.4583 15.7861C70.7679 15.8623 70.0794 15.9496 69.3904 16.0371C69.1517 16.0618 68.913 16.0864 68.667 16.1118C67.4244 16.2467 67.4244 16.2467 66.3805 16.8624C66.1176 17.2739 65.9279 17.6777 65.7422 18.1289C65.595 18.4139 65.4463 18.6983 65.2963 18.9818C65.1577 19.2616 65.02 19.5417 64.8831 19.8223C64.8115 19.9671 64.74 20.1119 64.6663 20.2612C64.493 20.6125 64.3206 20.9644 64.1484 21.3164C63.5508 21.1172 63.5508 21.1172 63.3064 20.7169C63.2286 20.5452 63.1508 20.3735 63.0706 20.1966C62.9414 19.9171 62.9414 19.9171 62.8095 19.632C62.7213 19.4359 62.6331 19.2399 62.5422 19.0378C62.3663 18.6518 62.1897 18.266 62.0123 17.8807C61.8959 17.6228 61.8959 17.6228 61.7772 17.3597C61.5722 16.9065 61.5722 16.9065 61.1602 16.5352C60.6206 16.4053 60.6206 16.4053 59.9882 16.3219C59.7558 16.2873 59.5234 16.2526 59.2839 16.2169C59.0402 16.1822 58.7965 16.1475 58.5454 16.1118C58.3002 16.0756 58.0549 16.0394 57.8022 16.0021C57.1952 15.9127 56.5879 15.8248 55.9805 15.7383C56.2608 15.0865 56.5864 14.7111 57.1221 14.2504C58.7591 12.8928 58.7591 12.8928 59.7462 11.0901C59.6888 10.4737 59.5586 9.95128 59.3672 9.36328C59.2921 8.96984 59.2214 8.57552 59.1555 8.18042C59.1203 8.01016 59.0852 7.8399 59.0489 7.66447C58.9667 7.15953 58.955 6.68642 58.9688 6.17578Z" fill="#D2D2D2"/>
<path d="M33.0703 6.17578C34.2854 6.52376 35.3177 7.13331 36.4018 7.76681C37.0411 8.12192 37.496 8.36259 38.2344 8.38431C39.137 8.0659 39.954 7.622 40.79 7.15942C41.1289 6.97376 41.4682 6.78877 41.8079 6.60457C41.9568 6.52237 42.1057 6.44018 42.2591 6.3555C42.6328 6.17578 42.6328 6.17578 43.0312 6.17578C42.9232 7.46136 42.7486 8.72026 42.5137 9.98895C42.3167 11.1622 42.3167 11.1622 42.7628 12.2125C42.913 12.3539 43.0632 12.4953 43.218 12.6411C43.3798 12.7972 43.5416 12.9533 43.7083 13.1142C43.8793 13.2734 44.0503 13.4326 44.2266 13.5967C44.5635 13.9165 44.8998 14.237 45.2351 14.5585C45.3853 14.6991 45.5356 14.8396 45.6904 14.9844C46.0195 15.3398 46.0195 15.3398 46.0195 15.7383C45.8678 15.7541 45.7161 15.7699 45.5599 15.7861C44.8695 15.8623 44.181 15.9496 43.4919 16.0371C43.2532 16.0618 43.0145 16.0864 42.7686 16.1118C41.526 16.2467 41.526 16.2467 40.482 16.8624C40.2192 17.2739 40.0295 17.6777 39.8438 18.1289C39.6965 18.4139 39.5479 18.6983 39.3978 18.9818C39.2593 19.2616 39.1215 19.5417 38.9846 19.8223C38.9131 19.9671 38.8416 20.1119 38.7679 20.2612C38.5945 20.6125 38.4221 20.9644 38.25 21.3164C38.1185 21.3164 37.987 21.3164 37.8516 21.3164C37.7873 21.1857 37.723 21.055 37.6567 20.9204C37.3656 20.3298 37.0732 19.7399 36.7808 19.1499C36.6796 18.9442 36.5784 18.7385 36.4742 18.5266C36.3766 18.3301 36.279 18.1337 36.1784 17.9312C36.0887 17.7497 35.999 17.5682 35.9066 17.3812C35.6751 16.9115 35.6751 16.9115 35.2617 16.5352C34.7221 16.4053 34.7221 16.4053 34.0898 16.3219C33.8573 16.2873 33.6249 16.2526 33.3855 16.2169C33.1418 16.1822 32.8981 16.1475 32.647 16.1118C32.4017 16.0756 32.1565 16.0394 31.9038 16.0021C31.2967 15.9127 30.6895 15.8248 30.082 15.7383C30.4384 14.967 30.9334 14.4427 31.5388 13.8582C31.6332 13.7656 31.7276 13.673 31.8248 13.5776C32.2879 13.1234 32.7513 12.6811 33.2415 12.2558C33.7155 11.7914 33.7155 11.7914 33.7357 11.1952C33.696 10.8924 33.696 10.8924 33.6555 10.5835C33.6288 10.3593 33.6021 10.1351 33.5746 9.90413C33.5397 9.65991 33.5047 9.41569 33.4688 9.16406C33.433 8.8863 33.3978 8.60848 33.3629 8.33061C33.2714 7.61146 33.1726 6.8935 33.0703 6.17578Z" fill="#D2D2D2"/>
<path d="M7.17188 16.3359C8.38693 16.6839 9.41924 17.2935 10.5033 17.927C11.1427 18.2821 11.5975 18.5227 12.336 18.5445C13.2385 18.2261 14.0555 17.7822 14.8916 17.3196C15.2305 17.1339 15.5698 16.9489 15.9095 16.7647C16.0584 16.6825 16.2073 16.6003 16.3606 16.5157C16.7344 16.3359 16.7344 16.3359 17.1328 16.3359C17.109 16.6722 17.0838 17.0084 17.0581 17.3445C17.0422 17.5615 17.0263 17.7785 17.0099 18.0021C16.9336 18.7266 16.9336 18.7266 16.7826 19.4946C16.477 20.8619 16.477 20.8619 16.7499 22.1888C17.1143 22.6101 17.5026 22.9509 17.9297 23.3086C18.2843 23.6679 18.637 24.0291 18.988 24.3918C19.5963 25.0261 19.5963 25.0261 20.3203 25.5C20.3203 25.6315 20.3203 25.763 20.3203 25.8984C20.1678 25.9028 20.0153 25.9071 19.8582 25.9115C16.9957 25.9387 16.9957 25.9387 14.5008 27.0885C13.842 27.9967 13.4475 28.9958 13.0986 30.0563C12.9156 30.5759 12.6587 31.0205 12.3516 31.4766C11.8402 31.0207 11.5852 30.5868 11.3088 29.963C11.2271 29.7869 11.1454 29.6109 11.0613 29.4295C10.8924 29.0599 10.7264 28.6889 10.5633 28.3167C10.0743 27.2411 10.0743 27.2411 9.12904 26.5918C8.87763 26.5602 8.62622 26.5286 8.36719 26.4961C8.03122 26.4398 7.6953 26.3832 7.35942 26.3264C7.00237 26.2741 6.64517 26.2228 6.28784 26.1724C6.01223 26.1323 6.01223 26.1323 5.73104 26.0914C5.28175 26.0262 4.83235 25.9619 4.38281 25.8984C4.38281 25.3008 4.38281 25.3008 4.69054 24.953C4.83116 24.8276 4.97178 24.7023 5.11665 24.5732C5.26855 24.4349 5.42045 24.2966 5.57696 24.1541C5.90065 23.8651 6.22438 23.5761 6.54815 23.2872C6.77638 23.0794 6.77638 23.0794 7.00923 22.8674C7.22049 22.679 7.22049 22.679 7.43602 22.4869C7.80873 22.0694 7.91349 21.8692 7.96875 21.3164C7.92381 20.7549 7.92381 20.7549 7.81389 20.1491C7.77729 19.927 7.7407 19.7048 7.703 19.476C7.66332 19.2451 7.62364 19.0142 7.58276 18.7764C7.5244 18.4254 7.5244 18.4254 7.46487 18.0674C7.36863 17.49 7.27091 16.9129 7.17188 16.3359Z" fill="#D2D2D2"/>
<path d="M84.8672 16.3359C86.0822 16.6839 87.1146 17.2935 88.1987 17.927C88.8377 18.2819 89.2932 18.5225 90.0313 18.5452C90.9354 18.2251 91.751 17.7741 92.5869 17.3071C92.9254 17.1184 93.2647 16.931 93.6048 16.7453C93.7537 16.662 93.9026 16.5788 94.056 16.493C94.1793 16.4412 94.3026 16.3894 94.4297 16.3359C94.6269 16.4346 94.6269 16.4346 94.8281 16.5352C94.7967 16.6837 94.7652 16.8323 94.7328 16.9853C94.5942 17.6639 94.4683 18.3443 94.3425 19.0254C94.2928 19.2591 94.2431 19.4928 94.1919 19.7336C93.9443 20.9965 93.9443 20.9965 94.2779 22.1974C94.6347 22.6134 95.0045 22.9587 95.4258 23.3086C95.6457 23.5154 95.8654 23.7223 96.0849 23.9296C96.3998 24.2097 96.7172 24.4868 97.0347 24.7638C97.3021 25.0018 97.5602 25.2501 97.8164 25.5C97.8164 25.6315 97.8164 25.763 97.8164 25.8984C97.6626 25.9194 97.5089 25.9405 97.3504 25.9621C96.6545 26.0587 95.9592 26.159 95.2639 26.2595C95.0219 26.2925 94.7798 26.3255 94.5305 26.3595C94.2987 26.3935 94.0669 26.4276 93.8281 26.4626C93.6143 26.4929 93.4004 26.5231 93.18 26.5543C92.5898 26.7075 92.3982 26.8112 92.0391 27.293C91.8633 27.5969 91.6995 27.9078 91.5449 28.2229C91.457 28.4008 91.369 28.5786 91.2784 28.7618C91.1884 28.9468 91.0984 29.1319 91.0056 29.3225C90.9133 29.5098 90.821 29.6972 90.7259 29.8902C90.4984 30.3521 90.2722 30.8144 90.0469 31.2773C89.8496 31.2773 89.6524 31.2773 89.4492 31.2773C89.3901 31.1467 89.3311 31.016 89.2702 30.8813C88.9988 30.2887 88.7199 29.6999 88.4407 29.1108C88.3478 28.9051 88.255 28.6994 88.1594 28.4875C87.6221 27.3132 87.6221 27.3132 86.6158 26.5755C86.3675 26.5493 86.1191 26.5231 85.8633 26.4961C85.5296 26.4449 85.196 26.3929 84.8625 26.3405C84.3235 26.2666 83.7842 26.1957 83.2446 26.1264C83.0718 26.1026 82.899 26.0787 82.7209 26.0541C82.5639 26.0337 82.4069 26.0132 82.2451 25.9922C82.1243 25.9613 82.0034 25.9303 81.8789 25.8984C81.8132 25.767 81.7474 25.6355 81.6797 25.5C81.7716 25.4224 81.8636 25.3449 81.9583 25.265C82.7793 24.5608 83.5768 23.834 84.3567 23.0845C84.5249 22.9237 84.6931 22.763 84.8664 22.5973C85.3188 22.0489 85.4328 21.8225 85.4648 21.1172C85.3994 20.5175 85.2921 19.9289 85.1785 19.3367C84.988 18.323 84.8256 17.3734 84.8672 16.3359Z" fill="#D2D2D2"/>
</svg>
