<svg width="102" height="102" viewBox="0 0 102 102" fill="none" xmlns="http://www.w3.org/2000/svg">
<g clip-path="url(#clip0_176_638)">
<path d="M72.5654 54.1372C73.1128 54.5882 73.6124 55.0758 74.1094 55.5815C74.7571 55.292 75.2308 54.9244 75.7654 54.4609C79.5753 51.3793 83.8739 50.7378 88.6523 50.9995C91.5419 51.3191 94.4529 52.8928 96.6211 54.7847C96.8142 54.939 97.0073 55.0933 97.2063 55.2523C99.7497 57.3763 101.661 61.0655 102 64.3471C102.567 73.3534 97.9645 80.4241 92.1975 86.9932C89.8898 89.5847 87.5365 92.2105 84.8898 94.4626C84.4575 94.8374 84.0375 95.2239 83.6183 95.6131C82.4134 96.731 81.1702 97.7845 79.8867 98.812C79.6357 99.0168 79.3849 99.2217 79.1342 99.4268C78.8704 99.6411 78.6066 99.8554 78.3428 100.07C78.2205 100.17 78.0981 100.27 77.9721 100.374C76.6598 101.432 75.5201 102.216 73.7709 102.15C72.4053 101.837 71.3743 100.891 70.3242 100.007C70.146 99.8588 70.146 99.8588 69.9642 99.7072C69.3695 99.209 68.7815 98.704 68.1982 98.1926C67.5954 97.665 66.9769 97.1596 66.3523 96.6579C65.6241 96.0671 64.9502 95.4566 64.301 94.7807C63.9649 94.4449 63.6177 94.139 63.2551 93.8323C62.2436 92.953 61.2993 92.0085 60.3542 91.0593C60.0525 90.7566 59.7498 90.4549 59.447 90.1534C58.3824 89.0897 57.3499 88.0095 56.3789 86.8589C56.2714 86.7338 56.1638 86.6087 56.053 86.4798C51.0618 80.6542 46.0738 73.3707 46.6172 65.3432C47.1778 60.991 49.1444 56.9812 52.642 54.2648C58.5648 49.9154 66.6226 49.607 72.5654 54.1372Z" fill="#D2D2D2"/>
<path d="M72.6028 8.82729C72.8039 8.82241 73.0049 8.81753 73.2121 8.8125C74.999 9.20096 76.3495 10.4903 77.5972 11.7576C77.7536 11.9132 77.91 12.0689 78.0711 12.2292C78.5823 12.739 79.0906 13.2515 79.5988 13.7642C79.9557 14.1215 80.3127 14.4788 80.6699 14.8358C81.4156 15.5821 82.16 16.3297 82.9032 17.0784C83.7604 17.9419 84.6196 18.8032 85.48 19.6633C86.3115 20.4946 87.1419 21.327 87.9716 22.16C88.3233 22.5129 88.6751 22.8656 89.0272 23.218C89.5188 23.7104 90.009 24.2041 90.4989 24.6982C90.6438 24.843 90.7887 24.9877 90.938 25.1368C92.2107 26.4256 93.0555 27.4397 93.0974 29.3219C93.1049 29.5384 93.1123 29.7549 93.12 29.9779C92.874 32.0109 91.3344 33.3331 89.9753 34.7257C89.8633 34.841 89.7513 34.9562 89.6359 35.0749C89.0412 35.6862 88.4439 36.2949 87.8446 36.9018C87.3561 37.3973 86.8727 37.8971 86.3936 38.4017C83.6079 41.3325 81.3245 43.6128 77.2351 44.4791C76.4334 44.6965 75.7142 45.0576 74.9746 45.4309C74.5078 45.6205 74.5078 45.6205 73.8533 45.5193C73.6749 45.4212 73.4964 45.3231 73.3125 45.2221C73.0047 45.0872 73.0047 45.0872 72.6907 44.9497C72.4727 44.8506 72.2547 44.7514 72.03 44.6493C69.0843 43.3547 65.9283 42.7515 62.7166 42.7692C62.4995 42.7703 62.2825 42.7714 62.0589 42.7726C55.6043 42.8688 49.6224 45.6398 45.105 50.2128C42.2889 53.1766 40.3344 56.8324 39.2461 60.7611C39.1824 60.9874 39.1187 61.2136 39.0531 61.4467C38.138 65.3741 38.2699 69.8553 39.4453 73.7103C39.4934 73.8698 39.5415 74.0292 39.591 74.1934C40.2463 76.3077 41.0698 78.3071 42.1011 80.2667C42.1761 80.4143 42.2512 80.562 42.3285 80.7141C42.3969 80.8432 42.4652 80.9722 42.5356 81.1052C42.6328 81.4799 42.6328 81.4799 42.4882 81.8504C42.1956 82.3419 41.8636 82.6953 41.4576 83.0987C41.2981 83.2582 41.1386 83.4177 40.9743 83.582C40.7159 83.8373 40.7159 83.8373 40.4523 84.0977C40.276 84.2735 40.0997 84.4492 39.918 84.6303C39.4504 85.0961 38.9819 85.561 38.513 86.0255C38.0342 86.5002 37.5566 86.976 37.0788 87.4518C36.1421 88.3841 35.2043 89.3152 34.2656 90.2455C33.5512 89.9423 33.0943 89.5218 32.5485 88.9748C32.2728 88.6999 32.2728 88.6999 31.9916 88.4194C31.7893 88.2158 31.5871 88.0121 31.3849 87.8085C31.171 87.5944 30.9569 87.3804 30.7428 87.1665C30.162 86.5858 29.5824 86.0039 29.0031 85.4218C28.3973 84.8135 27.7904 84.2064 27.1837 83.5992C26.035 82.4492 24.8873 81.2983 23.7399 80.147C22.4337 78.8362 21.1262 77.5266 19.8187 76.2171C17.1292 73.5234 14.4411 70.8283 11.7539 68.1322C12.0651 67.3868 12.5248 66.9126 13.0924 66.344C13.1892 66.2465 13.286 66.149 13.3857 66.0486C13.7117 65.7208 14.039 65.3944 14.3664 65.068C14.6022 64.8315 14.8379 64.5948 15.0735 64.3581C15.7225 63.7068 16.3726 63.0567 17.023 62.4068C17.7238 61.7061 18.4234 61.0042 19.1232 60.3025C20.495 58.9275 21.8679 57.5535 23.2412 56.1799C24.3575 55.0634 25.4735 53.9466 26.5893 52.8296C29.7519 49.6634 32.9154 46.4981 36.0799 43.3339C36.2506 43.1632 36.4213 42.9925 36.5972 42.8167C36.768 42.6458 36.9389 42.4749 37.115 42.2989C39.8839 39.5302 42.6507 36.7595 45.4167 33.988C48.256 31.1429 51.0967 28.2994 53.9391 25.4574C55.5351 23.8615 57.1305 22.265 58.7243 20.6669C60.0816 19.306 61.4402 17.9466 62.8006 16.5889C63.4946 15.8962 64.1879 15.2028 64.8796 14.5078C65.5131 13.8711 66.1485 13.2363 66.7853 12.603C67.015 12.3739 67.244 12.1441 67.4723 11.9136C70.5387 8.8194 70.5387 8.8194 72.6028 8.82729Z" fill="#D2D2D2"/>
<path d="M9.96094 71.918C11.1127 72.8755 12.1744 73.9027 13.2328 74.9617C13.4157 75.1439 13.5985 75.3261 13.7869 75.5138C14.2845 76.0096 14.7815 76.5061 15.2783 77.0028C15.5889 77.3132 15.8995 77.6235 16.2103 77.9337C17.2945 79.0161 18.3783 80.099 19.4615 81.1824C20.4715 82.1925 21.4827 83.2016 22.4943 84.2101C23.3638 85.077 24.2325 85.9446 25.1007 86.8129C25.6189 87.3311 26.1373 87.849 26.6566 88.3662C27.2339 88.9412 27.8096 89.5178 28.3851 90.0945C28.558 90.2663 28.731 90.4381 28.9091 90.6151C29.0647 90.7715 29.2202 90.9279 29.3805 91.089C29.5168 91.2252 29.6531 91.3614 29.7935 91.5017C30.082 91.8398 30.082 91.8398 30.082 92.2383C29.898 92.3069 29.714 92.3755 29.5244 92.4462C25.4331 93.9726 21.3478 95.5143 17.2686 97.0728C16.5606 97.3431 15.8524 97.6128 15.1442 97.8825C13.103 98.6604 11.0642 99.4425 9.03567 100.253C8.57605 100.435 8.11632 100.617 7.65654 100.798C7.25108 100.96 6.84757 101.126 6.44397 101.292C4.94203 101.885 3.61349 102.224 1.99219 102C1.01908 101.548 0.45181 100.981 6.54534e-06 100.008C-0.177502 98.375 0.0909155 97.0383 0.701941 95.534C0.776215 95.3417 0.850489 95.1494 0.927014 94.9513C1.17047 94.3235 1.41943 93.6981 1.66846 93.0725C1.84086 92.6308 2.01285 92.189 2.18446 91.747C2.53924 90.8345 2.89602 89.9228 3.25433 89.0117C3.99619 87.1221 4.71751 85.2248 5.44026 83.3279C6.01485 81.8217 6.59363 80.3172 7.17166 78.8123C7.36647 78.305 7.56111 77.7977 7.75572 77.2904C8.04384 76.5394 8.33253 75.7887 8.62177 75.0382C8.72487 74.7705 8.8278 74.5027 8.93055 74.2348C9.06833 73.8758 9.20683 73.5171 9.34539 73.1584C9.42168 72.9603 9.49796 72.7622 9.57656 72.5581C9.76173 72.1172 9.76173 72.1172 9.96094 71.918Z" fill="#D2D2D2"/>
<path d="M97.7184 2.52881C99.3728 3.87506 100.591 5.81622 101.402 7.76998C101.466 7.92098 101.53 8.07198 101.595 8.22756C102.617 11.1991 102.201 14.7023 100.947 17.5068C99.9272 19.5523 98.2924 21.0694 96.6732 22.6468C96.222 23.1105 95.8214 23.5944 95.4258 24.1059C94.7624 23.8848 94.6236 23.7204 94.1899 23.1952C93.4618 22.3377 92.6889 21.5415 91.8917 20.7485C91.7445 20.6012 91.5973 20.4539 91.4456 20.3022C90.964 19.8208 90.4817 19.34 89.9994 18.8593C89.6629 18.5231 89.3263 18.1869 88.9899 17.8506C88.1078 16.9694 87.2252 16.0887 86.3424 15.2081C85.4419 14.3096 84.5419 13.4106 83.6419 12.5115C81.9533 10.825 80.2641 9.13895 78.5746 7.45335C78.3477 7.227 78.1211 7.00047 77.8945 6.77388C83.4553 0.918587 83.4553 0.918588 87.2578 0.199666C87.5444 0.145352 87.5444 0.145352 87.8368 0.0899399C91.433 -0.432241 94.7471 0.52485 97.7184 2.52881Z" fill="#D2D2D2"/>
<path d="M65.3438 7.57028C65.4853 7.83136 65.6196 8.09668 65.7422 8.36715C65.1667 9.00705 64.5828 9.63771 63.99 10.2616C63.79 10.4746 63.5923 10.6899 63.3972 10.9075C62.7659 11.6097 62.1572 12.238 61.3594 12.75C60.728 12.7778 60.3081 12.6838 59.7211 12.4565C58.8854 12.2979 58.2939 12.5429 57.5742 12.9492C56.7779 13.6055 56.0636 14.3378 55.3426 15.0741C55.1224 15.2952 54.902 15.5161 54.6814 15.7368C54.2085 16.2108 53.7372 16.6864 53.2671 17.1632C52.5235 17.9174 51.7765 18.668 51.029 19.4183C49.8472 20.6052 48.6678 21.7945 47.4894 22.9848C45.3785 25.1169 43.2639 27.2455 41.1478 29.3726C40.4056 30.1189 39.6645 30.8663 38.9245 31.6147C38.464 32.0801 38.0027 32.5446 37.5413 33.009C37.3277 33.2242 37.1145 33.4399 36.9016 33.6558C36.6107 33.951 36.3186 34.2448 36.0262 34.5384C35.8632 34.7031 35.7002 34.8678 35.5322 35.0375C34.454 36.0095 33.6719 36.168 32.2493 36.1278C31.1835 35.9991 30.6881 35.5086 30.0198 34.7138C29.4776 33.6696 29.3883 32.8908 29.6462 31.7684C30.1679 30.4659 31.2817 29.5423 32.2611 28.5741C32.4881 28.346 32.7149 28.1178 32.9415 27.8893C33.5555 27.2717 34.1725 26.6572 34.7903 26.0434C35.4379 25.3991 36.083 24.7522 36.7284 24.1057C37.8129 23.0203 38.8994 21.937 39.9871 20.8549C41.2422 19.6062 42.4941 18.3543 43.7442 17.1007C44.9496 15.8922 46.1572 14.686 47.3658 13.4807C47.8788 12.9691 48.3911 12.4566 48.9027 11.9435C49.5062 11.3385 50.1117 10.7354 50.7187 10.1339C50.9403 9.91362 51.1612 9.69272 51.3814 9.47108C55.1515 5.67914 60.6908 4.21392 65.3438 7.57028Z" fill="#D2D2D2"/>
</g>
<defs>
<clipPath id="clip0_176_638">
<rect width="102" height="102" fill="white"/>
</clipPath>
</defs>
</svg>
